<mxfile host="app.diagrams.net" agent="Mozilla/5.0 (Windows NT 10.0; Win64; x64) AppleWebKit/537.36 (KHTML, like Gecko) Chrome/138.0.0.0 Safari/537.36 Edg/138.0.0.0" version="28.0.7">
  <diagram name="Page-1" id="ut0Z9025GnZeEeVINyWK">
    <mxGraphModel grid="1" page="1" gridSize="10" guides="1" tooltips="1" connect="1" arrows="1" fold="1" pageScale="1" pageWidth="850" pageHeight="1100" math="0" shadow="0">
      <root>
        <mxCell id="0" />
        <mxCell id="1" parent="0" />
        <mxCell id="w4h5vAPM1BayzZOdGZj_-2" style="edgeStyle=orthogonalEdgeStyle;rounded=0;orthogonalLoop=1;jettySize=auto;html=1;" edge="1" parent="1">
          <mxGeometry relative="1" as="geometry">
            <mxPoint x="80" y="149.20001220703125" as="targetPoint" />
            <mxPoint x="100" y="140" as="sourcePoint" />
          </mxGeometry>
        </mxCell>
        <mxCell id="w4h5vAPM1BayzZOdGZj_-1" value="" style="rounded=0;whiteSpace=wrap;html=1;" vertex="1" parent="1">
          <mxGeometry y="10" width="850" height="150" as="geometry" />
        </mxCell>
        <mxCell id="w4h5vAPM1BayzZOdGZj_-5" value="" style="whiteSpace=wrap;html=1;aspect=fixed;" vertex="1" parent="1">
          <mxGeometry x="160" y="55" width="90" height="90" as="geometry" />
        </mxCell>
        <mxCell id="w4h5vAPM1BayzZOdGZj_-6" value="" style="rounded=0;whiteSpace=wrap;html=1;" vertex="1" parent="1">
          <mxGeometry x="530" y="85" width="70" height="30" as="geometry" />
        </mxCell>
        <mxCell id="w4h5vAPM1BayzZOdGZj_-7" value="" style="whiteSpace=wrap;html=1;" vertex="1" parent="1">
          <mxGeometry x="610" y="85" width="70" height="30" as="geometry" />
        </mxCell>
        <mxCell id="w4h5vAPM1BayzZOdGZj_-9" value="" style="rounded=0;whiteSpace=wrap;html=1;" vertex="1" parent="1">
          <mxGeometry x="450" y="85" width="70" height="30" as="geometry" />
        </mxCell>
        <mxCell id="w4h5vAPM1BayzZOdGZj_-10" value="" style="rounded=0;whiteSpace=wrap;html=1;" vertex="1" parent="1">
          <mxGeometry x="700" y="85" width="70" height="30" as="geometry" />
        </mxCell>
        <mxCell id="w4h5vAPM1BayzZOdGZj_-11" value="Logo" style="text;html=1;align=center;verticalAlign=middle;whiteSpace=wrap;rounded=0;" vertex="1" parent="1">
          <mxGeometry x="175" y="90" width="60" height="30" as="geometry" />
        </mxCell>
        <mxCell id="w4h5vAPM1BayzZOdGZj_-12" value="contact us" style="text;html=1;align=center;verticalAlign=middle;whiteSpace=wrap;rounded=0;" vertex="1" parent="1">
          <mxGeometry x="705" y="85" width="60" height="30" as="geometry" />
        </mxCell>
        <mxCell id="w4h5vAPM1BayzZOdGZj_-13" value="trips" style="text;html=1;align=center;verticalAlign=middle;whiteSpace=wrap;rounded=0;" vertex="1" parent="1">
          <mxGeometry x="615" y="85" width="60" height="30" as="geometry" />
        </mxCell>
        <mxCell id="w4h5vAPM1BayzZOdGZj_-14" value="about us" style="text;html=1;align=center;verticalAlign=middle;whiteSpace=wrap;rounded=0;" vertex="1" parent="1">
          <mxGeometry x="535" y="85" width="60" height="30" as="geometry" />
        </mxCell>
        <mxCell id="w4h5vAPM1BayzZOdGZj_-15" value="Home" style="text;html=1;align=center;verticalAlign=middle;whiteSpace=wrap;rounded=0;" vertex="1" parent="1">
          <mxGeometry x="455" y="85" width="60" height="30" as="geometry" />
        </mxCell>
        <mxCell id="w4h5vAPM1BayzZOdGZj_-16" value="We&#39;d love to hear from you!" style="rounded=0;whiteSpace=wrap;html=1;" vertex="1" parent="1">
          <mxGeometry x="30" y="170" width="280" height="60" as="geometry" />
        </mxCell>
        <mxCell id="w4h5vAPM1BayzZOdGZj_-18" value="" style="rounded=0;whiteSpace=wrap;html=1;" vertex="1" parent="1">
          <mxGeometry y="560" width="850" height="80" as="geometry" />
        </mxCell>
        <mxCell id="w4h5vAPM1BayzZOdGZj_-19" value="" style="whiteSpace=wrap;html=1;aspect=fixed;" vertex="1" parent="1">
          <mxGeometry x="640" y="580" width="30" height="30" as="geometry" />
        </mxCell>
        <mxCell id="w4h5vAPM1BayzZOdGZj_-20" value="" style="whiteSpace=wrap;html=1;aspect=fixed;" vertex="1" parent="1">
          <mxGeometry x="690" y="580" width="30" height="30" as="geometry" />
        </mxCell>
        <mxCell id="w4h5vAPM1BayzZOdGZj_-21" value="" style="whiteSpace=wrap;html=1;aspect=fixed;" vertex="1" parent="1">
          <mxGeometry x="580" y="580" width="30" height="30" as="geometry" />
        </mxCell>
        <mxCell id="w4h5vAPM1BayzZOdGZj_-24" value="Text" style="text;html=1;align=center;verticalAlign=middle;whiteSpace=wrap;rounded=0;" vertex="1" parent="1">
          <mxGeometry x="270" y="580" width="220" height="30" as="geometry" />
        </mxCell>
        <mxCell id="w4h5vAPM1BayzZOdGZj_-25" value="" style="rounded=0;whiteSpace=wrap;html=1;" vertex="1" parent="1">
          <mxGeometry x="40" y="250" width="280" height="60" as="geometry" />
        </mxCell>
        <mxCell id="w4h5vAPM1BayzZOdGZj_-26" value="contact inro" style="text;html=1;align=center;verticalAlign=middle;whiteSpace=wrap;rounded=0;" vertex="1" parent="1">
          <mxGeometry x="160" y="265" width="60" height="30" as="geometry" />
        </mxCell>
        <mxCell id="w4h5vAPM1BayzZOdGZj_-27" value="" style="rounded=0;whiteSpace=wrap;html=1;" vertex="1" parent="1">
          <mxGeometry x="40" y="380" width="290" height="55" as="geometry" />
        </mxCell>
        <mxCell id="w4h5vAPM1BayzZOdGZj_-30" value="your info to fill out" style="text;html=1;align=center;verticalAlign=middle;whiteSpace=wrap;rounded=0;" vertex="1" parent="1">
          <mxGeometry x="160" y="392.5" width="60" height="30" as="geometry" />
        </mxCell>
        <mxCell id="w4h5vAPM1BayzZOdGZj_-31" value="" style="rounded=0;whiteSpace=wrap;html=1;" vertex="1" parent="1">
          <mxGeometry x="460" y="320" width="310" height="190" as="geometry" />
        </mxCell>
        <mxCell id="w4h5vAPM1BayzZOdGZj_-32" value="map" style="text;html=1;align=center;verticalAlign=middle;whiteSpace=wrap;rounded=0;" vertex="1" parent="1">
          <mxGeometry x="585" y="390" width="60" height="30" as="geometry" />
        </mxCell>
        <mxCell id="w4h5vAPM1BayzZOdGZj_-33" value="Actor" style="shape=umlActor;verticalLabelPosition=bottom;verticalAlign=top;html=1;outlineConnect=0;" vertex="1" parent="1">
          <mxGeometry x="460" y="180" width="30" height="60" as="geometry" />
        </mxCell>
        <mxCell id="w4h5vAPM1BayzZOdGZj_-34" value="Actor" style="shape=umlActor;verticalLabelPosition=bottom;verticalAlign=top;html=1;outlineConnect=0;" vertex="1" parent="1">
          <mxGeometry x="720" y="190" width="30" height="60" as="geometry" />
        </mxCell>
        <mxCell id="w4h5vAPM1BayzZOdGZj_-35" value="Actor" style="shape=umlActor;verticalLabelPosition=bottom;verticalAlign=top;html=1;outlineConnect=0;" vertex="1" parent="1">
          <mxGeometry x="595" y="170" width="30" height="60" as="geometry" />
        </mxCell>
      </root>
    </mxGraphModel>
  </diagram>
</mxfile>
